<?xml version="1.0" encoding="iso-8859-1"?>
<!-- Generator: Adobe Illustrator 18.0.0, SVG Export Plug-In . SVG Version: 6.00 Build 0)  -->
<!DOCTYPE svg PUBLIC "-//W3C//DTD SVG 1.1//EN" "http://www.w3.org/Graphics/SVG/1.1/DTD/svg11.dtd">
<svg xmlns="http://www.w3.org/2000/svg" xmlns:xlink="http://www.w3.org/1999/xlink" version="1.1" id="Capa_1" x="0px" y="0px" viewBox="0 0 486.336 486.336" style="enable-background:new 0 0 486.336 486.336;" xml:space="preserve" width="512px" height="512px">
<g id="XMLID_72_">
	<path id="XMLID_73_" d="M480.011,251.748c-15.872-12.313-147.567-113.052-220.532-127.858v-9.497   c20.172-6.822,34.739-25.943,34.739-48.399c0-28.155-22.893-51.065-51.042-51.065c-28.163,0-51.073,22.91-51.073,51.065   c0,9.003,7.293,16.303,16.303,16.303c9.011,0,16.303-7.299,16.303-16.303c0-10.181,8.279-18.46,18.468-18.46   c10.173,0,18.437,8.279,18.437,18.46c0,10.181-8.264,18.46-18.437,18.46c-9.011,0-16.302,7.3-16.302,16.303v23.125   C153.909,138.665,22.197,239.435,6.309,251.748c-5.492,4.268-7.689,11.567-5.429,18.158c2.262,6.599,8.455,11.025,15.428,11.025   h91.352v-32.605H65.757c56.184-39.978,140.181-93.805,177.403-93.805c37.191,0,121.204,53.827,177.404,93.805h-41.872v32.605   h91.336c6.975,0,13.168-4.426,15.428-11.025C487.717,263.315,485.52,256.016,480.011,251.748z" fill="#73269d"/>
	<path id="XMLID_74_" d="M335.834,236.05H150.517c-5.652,0-10.253,4.594-10.253,10.261v156.85h10.301v17.434h-10.301v40.55   c0,5.667,4.601,10.261,10.253,10.261h185.316c5.652,0,10.253-4.594,10.253-10.261v-40.55h-10.3v-17.434h10.3v-156.85   C346.087,240.645,341.486,236.05,335.834,236.05z M224.661,420.596h-37.048v-17.434h37.048V420.596z M298.739,420.596h-37.048   v-17.434h37.048V420.596z" fill="#73269d"/>
</g>
<g>
</g>
<g>
</g>
<g>
</g>
<g>
</g>
<g>
</g>
<g>
</g>
<g>
</g>
<g>
</g>
<g>
</g>
<g>
</g>
<g>
</g>
<g>
</g>
<g>
</g>
<g>
</g>
<g>
</g>
</svg>
